

<svg xmlns="http://www.w3.org/2000/svg" width="1200pt" height="1200pt" version="1.1" viewBox="0 0 1200 1200">
 <path fill="#e7e9ea" d="m763.31 725.29h1.6562v-1.7539c0-90.898-73.176-164.91-164.09-165.84h-1.7539c-91.559 0-165.89 74.293-165.89 165.84 0 0.64844 0.035156 1.1992 0.035156 1.7539l-0.035156 116.69h-433.23v-267.36l108.32-1.6094c84.348 0 164.83-35.699 221.61-97.992l0.097656 1.6094c69.277-75.562 166.85-118.62 269.11-118.62 102.25 0 199.82 43.043 269.11 118.62l1.8359-1.6094c56.773 62.293 137.17 97.992 221.55 97.992l108.36 1.6094v267.36h-433.34z"/>
</svg>